<svg width="200" height="68" viewBox="0 0 200 68" fill="none" xmlns="http://www.w3.org/2000/svg">
<g clip-path="url(#clip0)">
<path fill-rule="evenodd" clip-rule="evenodd" d="M49.2038 32.7025C48.109 31.6001 47.0091 30.4901 45.9219 29.3953C49.9851 25.3523 54.0964 21.2612 58.1648 17.2131C55.7475 14.8035 53.482 12.5455 51.1305 10.2016C50.5996 10.8135 49.9953 11.5139 49.4289 12.1688C48.1924 10.9197 47.0824 9.79707 46.023 8.72753C47.7323 7.02586 49.5427 5.218 51.3126 3.45312C55.7804 7.91842 60.3494 12.4823 64.893 17.0235C59.6945 22.2144 54.4605 27.4458 49.2038 32.7025Z" fill="#2C2C2E"/>
<path fill-rule="evenodd" clip-rule="evenodd" d="M19.0623 35.7051C20.0964 36.7468 21.1963 37.8593 22.3645 39.0376C18.2709 43.1135 14.1595 47.2046 10.0811 51.2653C12.4048 53.5941 14.6526 55.8444 17.0445 58.2364C17.5983 57.5587 18.195 56.8255 18.7715 56.1225C20.0509 57.4171 21.166 58.5448 22.2557 59.6472C20.4883 61.402 18.6881 63.1922 16.9409 64.9242C12.4427 60.4134 7.89398 55.8545 3.40088 51.3513C8.53116 46.2261 13.7853 40.977 19.0623 35.7051Z" fill="#2C2C2E"/>
<path fill-rule="evenodd" clip-rule="evenodd" d="M29.1738 22.386C25.1535 18.3506 21.0751 14.2519 17.032 10.1912C14.7134 12.5224 12.458 14.7879 10.1192 17.1369C10.7159 17.6729 11.4011 18.2899 12.0231 18.8512C10.8094 20.0522 9.68679 21.1648 8.61725 22.2242C6.94592 20.5402 5.14312 18.7248 3.3833 16.9548C7.82836 12.5174 12.3847 7.96611 16.893 3.46289C22.0435 8.62098 27.2875 13.8701 32.5114 19.099C31.4721 20.123 30.347 21.2305 29.1738 22.386Z" fill="#2C2C2E"/>
<path fill-rule="evenodd" clip-rule="evenodd" d="M51.2398 64.9382C46.059 59.7523 40.8275 54.5133 35.6265 49.3071C36.6783 48.2553 37.801 47.1327 38.9565 45.9746C42.9995 50.0379 47.0906 54.1517 51.164 58.2453C53.523 55.8812 55.7708 53.6308 58.1779 51.2187C57.4801 50.6599 56.7392 50.0707 56.0287 49.5044C57.3208 48.2199 58.4283 47.1225 59.5029 46.053C61.2374 47.8052 63.0377 49.6232 64.7975 51.4007C60.3196 55.8736 55.7633 60.4249 51.2398 64.9382Z" fill="#2C2C2E"/>
<path fill-rule="evenodd" clip-rule="evenodd" d="M19.0268 15.1387C20.0357 16.1627 21.128 17.2727 22.2835 18.4484C17.09 23.6217 11.8333 28.8531 6.51841 34.1478C8.42489 36.0138 10.2403 37.7888 12.0229 39.5334C10.8295 40.7344 9.72958 41.8369 8.68279 42.8912C5.80285 39.9936 2.87488 37.0479 0 34.1553C6.25798 27.8999 12.65 21.513 19.0268 15.1387Z" fill="#BB1F33"/>
<path fill-rule="evenodd" clip-rule="evenodd" d="M34.1195 6.69483C32.304 8.53556 30.5215 10.346 28.7591 12.1386C27.548 10.9174 26.4405 9.80233 25.3608 8.71761C28.2484 5.83515 31.1915 2.89706 34.0942 0.00195312C40.4179 6.3282 46.7947 12.7076 53.1286 19.0439C52.0742 20.1033 50.9617 21.2209 49.7834 22.4017C44.5899 17.1905 39.3635 11.9515 34.1195 6.69483Z" fill="#BB1F33"/>
<path fill-rule="evenodd" clip-rule="evenodd" d="M68.2688 34.2884C61.9779 40.5767 55.6188 46.9359 49.2951 53.2596C48.2078 52.1572 47.1029 51.0345 45.9297 49.8436C51.0802 44.7108 56.3344 39.4768 61.6568 34.1746C59.7706 32.3339 57.9526 30.5589 56.1498 28.7991C57.3458 27.6183 58.4507 26.5285 59.4899 25.502C62.3749 28.3895 65.3105 31.3276 68.2688 34.2884Z" fill="#B81E30"/>
<path fill-rule="evenodd" clip-rule="evenodd" d="M39.449 56.1527C40.7108 57.4169 41.7955 58.5041 42.9282 59.6369C42.7588 59.8265 42.5793 60.0465 42.3795 60.2463C40.018 62.6129 37.6538 64.977 35.2872 67.3386C34.7309 67.8949 33.4692 67.9303 32.9281 67.3892C26.9912 61.4599 21.0594 55.5256 15.1276 49.5913C15.0543 49.5179 14.9936 49.4294 14.938 49.3612C16.0707 48.241 17.1959 47.1285 18.3742 45.9629C23.5626 51.164 28.7865 56.403 34.0811 61.7077C35.8889 59.8366 37.6513 58.0111 39.449 56.1527Z" fill="#C51A35"/>
<path fill-rule="evenodd" clip-rule="evenodd" d="M39.609 35.6582C40.719 36.7682 41.8239 37.8731 42.8808 38.9326C38.1172 43.6861 33.3308 48.4649 28.605 53.1831C27.5861 52.1565 26.4584 51.0162 25.356 49.9062C30.0311 45.2335 34.8175 40.4497 39.609 35.6582Z" fill="#2C2C2E"/>
<path fill-rule="evenodd" clip-rule="evenodd" d="M32.6121 39.6538C31.5147 40.7385 30.387 41.8586 29.3124 42.9206C24.5867 38.1872 19.8104 33.4008 15.0923 28.6726C16.1113 27.646 17.2415 26.5107 18.3515 25.3906C23.0595 30.0986 27.8434 34.8851 32.6121 39.6538Z" fill="#2C2C2E"/>
<path fill-rule="evenodd" clip-rule="evenodd" d="M49.874 42.9156C45.1382 38.1823 40.3568 33.4035 35.6235 28.6727C36.7007 27.5855 37.8132 26.4653 38.8929 25.373C43.6515 30.1291 48.4328 34.9105 53.1585 39.6337C52.0864 40.7057 50.9689 41.8208 49.874 42.9156Z" fill="#2C2C2E"/>
<path fill-rule="evenodd" clip-rule="evenodd" d="M39.6189 15.1211C40.653 16.1578 41.7529 17.2627 42.7921 18.307C38.0689 23.0201 33.2875 27.7938 28.5669 32.5044C27.5757 31.5132 26.4607 30.3981 25.3911 29.3286C30.084 24.6408 34.8653 19.867 39.6189 15.1211Z" fill="#2C2C2E"/>
<path fill-rule="evenodd" clip-rule="evenodd" d="M92.6661 19.0555C92.6661 20.7647 92.6661 22.3324 92.6661 23.9936C92.3323 24.0087 92.0238 24.0366 91.7154 24.0366C89.6167 24.0391 87.5206 24.034 85.422 24.0391C84.2285 24.0416 83.4751 24.4639 83.2298 25.6244C83.0149 26.6459 82.9795 27.7635 83.1539 28.7901C83.3815 30.1226 84.1527 30.5904 85.5282 30.5954C87.5687 30.603 89.6066 30.598 91.6471 30.6005C91.9606 30.6005 92.2742 30.6005 92.6888 30.6005C92.6888 32.2971 92.7015 33.89 92.6737 35.4804C92.6686 35.7181 92.4992 35.9659 92.3677 36.1884C90.0086 40.2036 87.6395 44.2113 85.293 48.2341C85.0301 48.6867 84.7545 48.8991 84.2083 48.889C82.4359 48.8561 80.6609 48.8763 78.6937 48.8763C81.4422 44.4237 84.1148 40.0924 86.8961 35.5841C86.1249 35.5841 85.5788 35.5639 85.0377 35.5866C82.4384 35.7055 80.6583 34.416 79.6697 32.153C78.2765 28.9671 78.2841 25.6775 79.6798 22.4866C80.6786 20.2034 82.4915 19.0074 85.0629 19.0479C87.2754 19.0833 89.4903 19.0555 91.7053 19.0555C91.991 19.0555 92.2767 19.0555 92.6661 19.0555Z" fill="#BB1F33"/>
<path d="M110.587 18.6754L110.415 48.873L115.652 48.9029L115.824 18.7053L110.587 18.6754Z" fill="#2C2C2E"/>
<path d="M124.656 43.6953H110.446V48.9874H124.656V43.6953Z" fill="#2C2C2E"/>
<path d="M131.665 18.6777H126.242V48.9841H131.665V18.6777Z" fill="#2C2C2E"/>
<path d="M133.412 48.9057V18.6777L149.855 35.8638V42.6856L137.961 30.5287L137.938 48.9057H133.412Z" fill="#2C2C2E"/>
<path d="M155.802 18.6777H151.21V43.9979L155.802 48.9057V18.6777Z" fill="#2C2C2E"/>
<path d="M162.449 18.6777H157.552V48.9031H162.449V18.6777Z" fill="#2C2C2E"/>
<path d="M173.112 18.8105L158.07 38.6389L161.971 41.5997L179.261 18.8105H173.112Z" fill="#2C2C2E"/>
<path d="M169.708 33.7922L180.905 48.9074H174.869L166.646 37.8782L169.883 33.418" fill="#2C2C2E"/>
<path d="M187.987 24.9355V48.908H192.885V25.8079L187.987 24.9355Z" fill="#2C2C2E"/>
<path d="M200 18.8105H180.905V23.8245H200V18.8105Z" fill="#2C2C2E"/>
<path d="M108.578 31.2129H94.8457V36.7224H108.578V31.2129Z" fill="#BB1F33"/>
<path d="M108.578 43.584H94.8457V49.0935H108.578V43.584Z" fill="#BB1F33"/>
<path d="M84.6988 48.9847L78.8403 48.9063L86.4485 35.6015L92.484 30.4434V35.5155L84.6988 48.9847Z" fill="#BB1F33"/>
<path d="M108.578 18.9844H94.8457V24.4939H108.578V18.9844Z" fill="#BB1F33"/>
<path d="M92.6002 18.9844H84.2612V23.9705H92.6002V18.9844Z" fill="#BB1F33"/>
</g>
<defs>
<clipPath id="clip0">
<rect width="200" height="67.7784" fill="white"/>
</clipPath>
</defs>
</svg>
