<svg width="50" height="50" viewBox="0 0 50 50" fill="none" xmlns="http://www.w3.org/2000/svg">
<path d="M16.0028 23.0448C14.7714 22.6902 13.5399 22.5103 12.342 22.5103C10.4921 22.5103 8.94861 22.9331 7.75175 23.4507C8.9056 19.2266 11.6775 11.9379 17.1992 11.1171C17.7105 11.041 18.1296 10.6713 18.2691 10.1736L19.4759 5.85711C19.5777 5.49208 19.5173 5.10134 19.3091 4.78456C19.1009 4.46777 18.7663 4.25641 18.3913 4.20501C17.9838 4.14942 17.5684 4.12109 17.1567 4.12109C10.5289 4.12109 3.96502 11.0389 1.19526 20.9442C-0.430621 26.7554 -0.907371 35.4922 3.09754 40.9913C5.33863 44.0684 8.60822 45.7116 12.8156 45.8758C12.8329 45.8763 12.8497 45.8768 12.867 45.8768C18.0583 45.8768 22.6616 42.3807 24.0619 37.3756C24.8985 34.3834 24.5203 31.2455 22.9962 28.5376C21.4883 25.8602 19.0049 23.9086 16.0028 23.0448Z" fill="#C51A35" fill-opacity="0.5"/>
<path d="M48.4989 28.5381C46.991 25.8602 44.5076 23.9086 41.5055 23.0448C40.2741 22.6902 39.0426 22.5103 37.8452 22.5103C35.9954 22.5103 34.4513 22.9331 33.2544 23.4507C34.4083 19.2266 37.1802 11.9379 42.7024 11.1171C43.2137 11.041 43.6323 10.6713 43.7723 10.1736L44.9791 5.85711C45.0809 5.49208 45.0206 5.10134 44.8124 4.78456C44.6047 4.46777 44.27 4.25641 43.8945 4.20501C43.4875 4.14942 43.0721 4.12109 42.6599 4.12109C36.0321 4.12109 29.4682 11.0389 26.698 20.9442C25.0726 26.7554 24.5959 35.4922 28.6013 40.9924C30.8419 44.069 34.112 45.7127 38.3188 45.8763C38.3361 45.8768 38.3529 45.8774 38.3707 45.8774C43.5615 45.8774 48.1653 42.3812 49.5657 37.3761C50.4012 34.384 50.0225 31.2455 48.4989 28.5381Z" fill="#C51A35" fill-opacity="0.5"/>
</svg>
