<svg width="30" height="30" viewBox="0 0 30 30" fill="none" xmlns="http://www.w3.org/2000/svg">
<path d="M0 15.0005C0 15.5826 0.471814 16.0544 1.05392 16.0544H26.4338L19.7855 22.6966C19.5833 22.8988 19.4792 23.1684 19.4792 23.438C19.4792 23.7076 19.5833 23.9772 19.7855 24.1794C20.1961 24.59 20.864 24.59 21.2745 24.1794L29.7059 15.7419C30.098 15.3498 30.098 14.6512 29.7059 14.2529L21.2684 5.82158C20.8578 5.41104 20.19 5.41104 19.7794 5.82158C19.3689 6.23212 19.3689 6.90001 19.7794 7.31055L26.4216 13.9527H1.04779C0.465686 13.9466 0 14.4184 0 15.0005Z" fill="#C51A35"/>
</svg>
