<svg width="25" height="25" viewBox="0 0 25 25" fill="none" xmlns="http://www.w3.org/2000/svg">
<path d="M19.7578 15.4859C19.246 14.953 18.6286 14.668 17.9743 14.668C17.3253 14.668 16.7027 14.9477 16.1698 15.4806L14.5024 17.1427C14.3653 17.0688 14.2281 17.0002 14.0962 16.9316C13.9062 16.8367 13.7268 16.747 13.5738 16.652C12.012 15.66 10.5926 14.3673 9.2313 12.6947C8.57175 11.861 8.12853 11.1592 7.80667 10.4469C8.23934 10.0512 8.64034 9.6396 9.0308 9.24387C9.17854 9.09613 9.32628 8.94312 9.47402 8.79538C10.5821 7.68733 10.5821 6.25214 9.47402 5.14409L8.03356 3.70362C7.86999 3.54005 7.70114 3.37121 7.54285 3.20236C7.22626 2.87522 6.89385 2.53753 6.55088 2.22095C6.03907 1.71441 5.427 1.44531 4.78328 1.44531C4.13956 1.44531 3.51694 1.71441 2.9893 2.22095C2.98402 2.22622 2.98402 2.22622 2.97874 2.2315L1.18476 4.04132C0.50938 4.7167 0.124201 5.53982 0.0397781 6.49485C-0.086856 8.03557 0.366916 9.47076 0.71516 10.41C1.56994 12.7158 2.84683 14.8527 4.75162 17.1427C7.06269 19.9023 9.84337 22.0814 13.0198 23.6169C14.2334 24.192 15.8532 24.8727 17.663 24.9887C17.7738 24.994 17.8899 24.9993 17.9954 24.9993C19.2143 24.9993 20.2379 24.5613 21.0399 23.6907C21.0452 23.6802 21.0558 23.6749 21.061 23.6643C21.3354 23.3319 21.652 23.0312 21.9844 22.7093C22.2113 22.493 22.4435 22.2661 22.6703 22.0287C23.1927 21.4852 23.4671 20.852 23.4671 20.203C23.4671 19.5487 23.1874 18.9208 22.6545 18.3932L19.7578 15.4859ZM21.6467 21.042C21.6414 21.042 21.6414 21.0472 21.6467 21.042C21.4409 21.2636 21.2299 21.4641 21.003 21.6857C20.66 22.0128 20.3118 22.3558 19.9846 22.741C19.4517 23.3108 18.8238 23.5799 18.0007 23.5799C17.9216 23.5799 17.8371 23.5799 17.758 23.5746C16.1909 23.4744 14.7346 22.8623 13.6424 22.34C10.6559 20.8942 8.03356 18.8417 5.85439 16.2404C4.05513 14.0718 2.85211 12.0668 2.05537 9.91398C1.56466 8.60015 1.38527 7.57652 1.46441 6.61094C1.51718 5.99359 1.75462 5.48178 2.19256 5.04384L3.99182 3.24457C4.25036 3.00186 4.52474 2.86995 4.79383 2.86995C5.12625 2.86995 5.39535 3.07045 5.56419 3.2393C5.56947 3.24457 5.57474 3.24985 5.58002 3.25513C5.90188 3.55588 6.20791 3.86719 6.52978 4.19961C6.69335 4.36845 6.86219 4.5373 7.03104 4.71142L8.4715 6.15189C9.0308 6.71119 9.0308 7.22828 8.4715 7.78758C8.31848 7.94059 8.17074 8.09361 8.01773 8.24135C7.57451 8.69512 7.15239 9.11724 6.69335 9.5288C6.68279 9.53935 6.67224 9.54463 6.66696 9.55518C6.21319 10.009 6.29761 10.4522 6.39259 10.7529C6.39787 10.7688 6.40314 10.7846 6.40842 10.8004C6.78304 11.708 7.31069 12.5627 8.1127 13.5811L8.11798 13.5864C9.57427 15.3804 11.1097 16.7786 12.8034 17.8497C13.0198 17.9869 13.2414 18.0977 13.4524 18.2032C13.6424 18.2982 13.8218 18.3879 13.9748 18.4829C13.9959 18.4934 14.017 18.5093 14.0381 18.5198C14.2175 18.6095 14.3864 18.6517 14.5605 18.6517C14.9984 18.6517 15.2728 18.3774 15.3625 18.2877L17.167 16.4831C17.3464 16.3037 17.6314 16.0874 17.9638 16.0874C18.2909 16.0874 18.56 16.2932 18.7236 16.4726C18.7289 16.4779 18.7289 16.4779 18.7341 16.4831L21.6414 19.3904C22.1849 19.9286 22.1849 20.4827 21.6467 21.042Z" fill="#C51A35"/>
<path d="M13.5106 5.94627C14.8931 6.17843 16.1488 6.83271 17.1514 7.83523C18.1539 8.83775 18.8029 10.0935 19.0403 11.476C19.0984 11.8242 19.3991 12.0669 19.7421 12.0669C19.7843 12.0669 19.8212 12.0616 19.8634 12.0564C20.2539 11.993 20.5124 11.6237 20.4491 11.2332C20.1642 9.56062 19.3727 8.03573 18.1644 6.82743C16.9561 5.61913 15.4313 4.82767 13.7586 4.54274C13.3682 4.47942 13.0041 4.73797 12.9355 5.12315C12.8669 5.50832 13.1202 5.88295 13.5106 5.94627Z" fill="#C51A35"/>
<path d="M24.971 11.028C24.5014 8.27374 23.2034 5.76744 21.2089 3.77295C19.2144 1.77846 16.7081 0.480461 13.9538 0.0108597C13.5687 -0.0577338 13.2046 0.206087 13.136 0.591266C13.0727 0.981721 13.3312 1.34579 13.7217 1.41439C16.1805 1.83122 18.423 2.99731 20.2064 4.77547C21.9898 6.5589 23.1506 8.80138 23.5675 11.2602C23.6255 11.6084 23.9263 11.8511 24.2692 11.8511C24.3115 11.8511 24.3484 11.8459 24.3906 11.8406C24.7758 11.7826 25.0396 11.4132 24.971 11.028Z" fill="#C51A35"/>
</svg>
