<svg width="701" height="438" viewBox="0 0 701 438" fill="none" xmlns="http://www.w3.org/2000/svg">
<path d="M226.687 297.855C198.206 283.348 162.354 282.514 130.47 277.445C100.788 272.709 46.6931 251.998 25.0818 229.553C-12.3044 190.766 -10.0366 106.055 46.4263 79.0072C111.194 47.9576 192.57 76.4392 262.773 85.6774C371.096 99.9182 394.375 16.241 499.73 1.8668C540.018 -3.63608 597.515 8.43691 617.259 49.4584C642.305 101.552 609.088 161.384 646.641 210.776C660.682 229.253 751.596 306.993 658.814 337.609C625.596 348.582 591.512 355.686 557.561 363.79C524.877 371.594 493.127 380.932 463.778 397.541C424.624 419.686 381.569 452.736 336.478 430.425C278.481 401.676 279.582 324.803 226.687 297.855Z" fill="#FF8AA9" fill-opacity="0.07"/>
</svg>
