<svg width="90" height="90" viewBox="0 0 90 90" fill="none" xmlns="http://www.w3.org/2000/svg">
<g clip-path="url(#clip0)">
<path d="M18.0016 0C10.5573 0.00158198 4.50195 6.05689 4.50195 13.5012C4.50195 20.9455 10.5573 26.9994 18.0016 26.9994C25.4458 26.9994 31.5012 20.9441 31.5012 13.4998C31.5012 6.05531 25.4458 0 18.0016 0ZM18.0016 22.5009C13.0308 22.5009 9.00182 18.472 9.00182 13.5012C9.00182 8.53041 13.0308 4.50145 18.0016 4.50145C22.9723 4.50145 27.0013 8.53041 27.0013 13.5012C27.0013 18.472 22.9725 22.5009 18.0016 22.5009Z" fill="url(#paint0_linear)"/>
<path d="M85.4986 22.5H40.4999C38.0144 22.5 36 24.5144 36 26.9999V30.4363L40.4999 32.6862V26.9999H85.4986V62.9973H40.4999V57.6484L36 56.525V62.9973C36 65.4827 38.0144 67.4971 40.4999 67.4971H59.0274L47.5707 86.5901C46.9287 87.6536 47.2766 89.038 48.3446 89.6755C49.3991 90.3221 50.7881 89.974 51.43 88.9016L60.7493 73.3681V87.7452C60.7493 88.9886 61.7558 89.9951 62.9993 89.9951C64.2427 89.9951 65.2492 88.9886 65.2492 87.7452V73.3681L74.5699 88.9002C74.9914 89.6037 75.7383 89.9937 76.4989 89.9937C76.8949 89.9937 77.2939 89.8932 77.6553 89.6727C78.7233 89.0352 79.0698 87.6508 78.4293 86.5873L66.9725 67.4943H85.4985C87.9839 67.4943 89.9983 65.4799 89.9983 62.9945V26.9999C89.9985 24.5144 87.9841 22.5 85.4986 22.5Z" fill="url(#paint1_linear)"/>
<path d="M78.6608 35.3803C78.3217 34.1848 77.0783 33.4813 75.8798 33.8383L48.1141 41.7717C47.7901 41.4582 47.4271 41.1837 47.0132 40.9752L29.0137 31.9755C28.3883 31.6635 27.6998 31.5 27.0007 31.5H9.00125C6.82637 31.5 4.96332 33.0554 4.57345 35.1945L0.073585 59.9422C-0.164943 61.2547 0.190652 62.606 1.04563 63.6305C1.9006 64.6549 3.16654 65.2474 4.50156 65.2474H7.3769L9.01637 85.8523C9.20234 88.1922 11.1538 89.9951 13.5013 89.9951H22.501C24.7944 89.9951 26.7204 88.2716 26.9738 85.9932L30.9052 50.6137L43.9099 53.8642C44.2698 53.9542 44.6358 53.9976 45.0004 53.9976C45.9933 53.9976 46.9698 53.6691 47.7694 53.0451C48.8613 52.1931 49.5002 50.8835 49.5002 49.4977V46.0523L77.1189 38.161C78.3143 37.8221 79.0043 36.5741 78.6608 35.3803ZM45.0002 49.4993L27.0007 44.9994L22.5009 85.4968H13.5011L11.5331 60.7476H4.50138L9.00125 35.9999H15.7511V49.6884C15.7511 50.9319 16.7575 51.9384 18.001 51.9384C19.2444 51.9384 20.2509 50.9319 20.2509 49.6884V35.9997H27.0007L45.0002 44.9994V49.4993Z" fill="url(#paint2_linear)"/>
</g>
<defs>
<linearGradient id="paint0_linear" x1="4.50195" y1="13.4997" x2="31.5012" y2="13.4997" gradientUnits="userSpaceOnUse">
<stop stop-color="#C51A35"/>
<stop offset="1" stop-color="#FF5772"/>
</linearGradient>
<linearGradient id="paint1_linear" x1="36" y1="56.2503" x2="89.9983" y2="56.2503" gradientUnits="userSpaceOnUse">
<stop stop-color="#C51A35"/>
<stop offset="1" stop-color="#FF5772"/>
</linearGradient>
<linearGradient id="paint2_linear" x1="0.000976563" y1="60.7476" x2="78.749" y2="60.7476" gradientUnits="userSpaceOnUse">
<stop stop-color="#C51A35"/>
<stop offset="1" stop-color="#FF5772"/>
</linearGradient>
<clipPath id="clip0">
<rect width="90" height="90" fill="white"/>
</clipPath>
</defs>
</svg>
